<svg id="Logo_and_Name" data-name="Logo and Name" xmlns="http://www.w3.org/2000/svg" viewBox="0 0 406.363 71.914"><defs><style>.cls-1{fill:#fff200;}.cls-2{fill:#fff;}</style></defs><title>App_Logo</title><path class="cls-1" d="M26.947,54.389L15.095,40.721l1.466-16.712,14.02-11.145,52.151,4.564L79.1,58.952ZM19.702,34.906a1.8666,1.8666,0,1,0-1.697-2.023A1.8694,1.8694,0,0,0,19.702,34.906Z"/><path d="M26.914,54.778l0.033-.39,0.296-.258-0.296.258-0.033.39-0.158-.013L14.69,40.852l1.494-17.046L30.459,12.46l52.695,4.61-3.7,42.303-52.54-4.595h0Zm51.828,3.746,3.562-40.742L30.703,13.267,16.935,24.211,15.504,40.592l11.635,13.42,51.603,4.512h0ZM19.668,35.295l0.033-.39-0.036.39a2.2567,2.2567,0,0,1-2.061-2.248h0c0-.066.003-0.133,0.009-0.2h0a2.2572,2.2572,0,0,1,2.247-2.062h0c0.067,0,.13.003,0.201,0.008h0a2.259,2.259,0,0,1,2.062,2.251h0a1.738,1.738,0,0,1-.01.198h0a2.2589,2.2589,0,0,1-2.251,2.061h0a1.6222,1.6222,0,0,1-.194-0.008h0Zm0.193-.774a1.4768,1.4768,0,0,0,1.472-1.346h0a1.0959,1.0959,0,0,0,.005-0.129h0a1.4758,1.4758,0,0,0-1.348-1.47h0c-0.041-.004-0.086-0.007-0.13-0.007h0a1.4744,1.4744,0,0,0-1.467,1.349h0c-0.003.043-.003,0.087-0.003,0.131h0a1.4712,1.4712,0,0,0,1.346,1.468h0c0.043,0.004.085,0.004,0.125,0.004h0Z"/><path id="R" d="M75.2,40.513a1.037,1.037,0,1,1,.944,1.12A1.0257,1.0257,0,0,1,75.2,40.513Zm0.17,0.015a0.8678,0.8678,0,1,0,.938-0.787A0.86,0.86,0,0,0,75.37,40.528Zm1.283,0.703-0.191-.018-0.248-.559-0.215-.02-0.045.533-0.171-.012,0.1-1.158,0.487,0.042a0.3227,0.3227,0,0,1,.373.34,0.2939,0.2939,0,0,1-.336.291Zm-0.615-1.05-0.024.288,0.178,0.018c0.155,0.012.367,0.059,0.385-.103,0.014-.147-0.111-0.169-0.25-0.181Z"/><g id="Best_Buy" data-name="Best Buy"><path d="M64.26,38.297l1.658,3.422,0.184,0.014a12.0449,12.0449,0,0,1,.681-1.118l1.43-1.972,7.115,0.621-6.579,6.559L68.28,51.188l-6.194-.544,0.468-5.361L57.097,37.67Z"/><path d="M57.305,37.689l-0.645,7.36c-0.318,3.631-3.533,5.016-8.238,4.6-4.7-.406-7.634-2.327-7.315-5.958l0.643-7.365,6.108,0.534-0.605,6.933c-0.086.977-.116,1.838,1.508,1.98,1.628,0.139,1.746-.713,1.834-1.688l0.606-6.933Z"/><path d="M26.424,34.965l7.373,0.643c3.375,0.296,6.767,1.174,6.517,4.047a2.6575,2.6575,0,0,1-2.507,2.307l-0.009.101c1.854,0.645,2.967,1.739,2.837,3.226-0.225,2.56-3.628,3.142-6.678,2.876l-8.619-.755Zm6.031,5.351c0.924,0.079,1.971.105,2.046-.754,0.078-.925-1.104-0.963-2.032-1.042l-0.436-.039-0.157,1.783ZM31.466,44.95l0.716,0.066c1.042,0.09,2.544.203,2.635-.82,0.089-1.041-1.53-1.163-2.547-1.253l-0.624-.054Z"/><path d="M66.988,24.494l13.313,1.162-0.355,4.043-3.481-.419-0.743,8.517-6.33-.555,0.742-8.516-3.5-.19Z"/><path d="M54.141,31.419l0.304,0.208a8.2666,8.2666,0,0,0,3.854,1.484c0.621,0.055,1.632-.04,1.684-0.603,0.047-.56-0.778-0.683-1.349-0.817l-1.258-.274c-2.445-.529-4.433-1.752-4.262-3.699,0.256-2.956,4.167-4.276,7.959-3.945A13.6686,13.6686,0,0,1,66.5,25.346l-1.989,3.035a8.4146,8.4146,0,0,0-3.593-1.262c-0.551-.048-1.375.03-1.418,0.54-0.042.464,0.739,0.601,1.216,0.724l1.414,0.356c2.641,0.662,4.494,1.856,4.308,3.969-0.262,2.971-4.176,4.11-7.945,3.78a21.1129,21.1129,0,0,1-6.603-1.727Z"/><path d="M40.677,22.192l11.715,1.024-0.298,3.399-5.338-.467-0.103,1.188,4.878,0.426-0.286,3.234-4.876-.424-0.106,1.221,5.523,0.481-0.297,3.402-11.9-1.041Z"/><path d="M25.116,20.758l7.372,0.646c3.375,0.293,6.766,1.174,6.515,4.047a2.6592,2.6592,0,0,1-2.507,2.308l-0.011.102c1.852,0.642,2.969,1.736,2.84,3.223-0.225,2.56-3.628,3.143-6.678,2.876l-8.62-.756Zm6.029,5.352c0.926,0.082,1.969.105,2.043-.752,0.083-.924-1.103-0.962-2.026-1.043l-0.438-.038-0.155,1.782Zm-0.986,4.638,0.714,0.062c1.04,0.091,2.544.207,2.632-.817,0.089-1.04-1.528-1.165-2.544-1.252l-0.626-.057Z"/></g><path class="cls-2" d="M100.042,43.98V28.7583H103.74v12.019h5.8911V43.98H100.042Z"/><path class="cls-2" d="M111.3506,43.98V28.7583h3.6982V43.98h-3.6982Z"/><path class="cls-2" d="M127.4756,43.98l-5.6543-7.0088h-0.043V43.98h-3.5908V28.7583h3.5908v6.1924h0.0645l5.4395-6.1924h4.6011l-6.5576,7.0093L132.27,43.98h-4.7944Z"/><path class="cls-2" d="M133.4741,43.98V28.7583h10.2344v3.0962H137.022v2.8809h6.3208v2.9463H137.022v3.16h7.0732V43.98H133.4741Z"/><path class="cls-2" d="M155.5332,31.8975v3.1392h5.8911v3.0317h-5.8911V43.98h-3.6338V28.7583h10.019v3.1392h-6.3853Z"/><path class="cls-2" d="M180.15,36.3052a8.4926,8.4926,0,0,1-.6235,3.3,7.5237,7.5237,0,0,1-1.731,2.5586,7.7082,7.7082,0,0,1-2.6333,1.6445,9.6936,9.6936,0,0,1-6.6113,0,7.72,7.72,0,0,1-2.623-1.6445,7.5167,7.5167,0,0,1-1.731-2.5586,8.4836,8.4836,0,0,1-.6235-3.3,8.3822,8.3822,0,0,1,.6235-3.3,7.2225,7.2225,0,0,1,1.731-2.5049,7.703,7.703,0,0,1,2.623-1.5908,10.0522,10.0522,0,0,1,6.6113,0A7.693,7.693,0,0,1,177.7959,30.5a7.2291,7.2291,0,0,1,1.731,2.5049A8.3909,8.3909,0,0,1,180.15,36.3052Zm-3.9346,0a5.2275,5.2275,0,0,0-.3223-1.8491,4.4085,4.4085,0,0,0-.8926-1.4727,4.1206,4.1206,0,0,0-1.376-.9678,4.3576,4.3576,0,0,0-1.7734-.3545,4.2284,4.2284,0,0,0-3.1392,1.3223,4.1743,4.1743,0,0,0-.8921,1.4727,5.7031,5.7031,0,0,0,.0107,3.752,4.5,4.5,0,0,0,.8921,1.4941,4.0636,4.0636,0,0,0,1.3652.9785,4.5609,4.5609,0,0,0,3.5259,0,4.1812,4.1812,0,0,0,1.376-.9785,4.4125,4.4125,0,0,0,.9033-1.4941A5.4407,5.4407,0,0,0,176.2158,36.3052Z"/><path class="cls-2" d="M190.728,43.98l-3.3047-6.041H186.17V43.98H182.58V28.7583h5.8052a10.0575,10.0575,0,0,1,2.1392.2261,5.5562,5.5562,0,0,1,1.8706.7632,3.999,3.999,0,0,1,1.3223,1.4189,4.4332,4.4332,0,0,1,.4946,2.1929,4.0452,4.0452,0,0,1-.8389,2.6016,4.5682,4.5682,0,0,1-2.3218,1.5049l3.9766,6.5146H190.728Zm-0.15-10.5566a1.5184,1.5184,0,0,0-.2271-0.8706,1.553,1.553,0,0,0-.583-0.5161,2.5509,2.5509,0,0,0-.8-0.2471,5.9218,5.9218,0,0,0-.853-0.0645h-1.9658v3.5474h1.75a5.9215,5.9215,0,0,0,.9292-0.0752,2.9774,2.9774,0,0,0,.8643-0.2686A1.5609,1.5609,0,0,0,190.5776,33.4238Z"/><path class="cls-2" d="M202.209,43.98V28.7583h3.6982v12.019h5.8906V43.98H202.209Z"/><path class="cls-2" d="M213.5176,43.98V28.7583h3.6982V43.98h-3.6982Z"/><path class="cls-2" d="M229.6426,43.98l-5.6543-7.0088h-0.043V43.98h-3.5908V28.7583h3.5908v6.1924H224.01l5.4395-6.1924H234.05l-6.5576,7.0093,6.9453,8.2129h-4.7949Z"/><path class="cls-2" d="M235.6406,43.98V28.7583H245.875v3.0962h-6.6865v2.8809H245.51v2.9463h-6.3213v3.16h7.0732V43.98H235.6406Z"/></svg>