<?xml version="1.0" encoding="utf-8"?>
<!-- Generator: Adobe Illustrator 18.1.1, SVG Export Plug-In . SVG Version: 6.00 Build 0)  -->
<svg version="1.1" id="Layer_1" xmlns="http://www.w3.org/2000/svg" xmlns:xlink="http://www.w3.org/1999/xlink" x="0px" y="0px"
	 viewBox="0 0 32 32" enable-background="new 0 0 32 32" xml:space="preserve">
	<path fill="#FFFFFF" d="M30.269,26.752l-7.178-7.193c-0.083-0.082-0.176-0.147-0.264-0.215c1.212-1.864,1.921-4.085,1.921-6.475
	c0-6.57-5.314-11.896-11.874-11.896C6.317,0.973,1,6.299,1,12.869c0,6.571,5.317,11.895,11.875,11.895
	c2.385,0,4.604-0.712,6.467-1.925c0.068,0.089,0.132,0.18,0.213,0.262l7.177,7.193c0.491,0.489,1.13,0.734,1.767,0.734
	c0.64,0,1.279-0.245,1.77-0.733C31.244,29.316,31.244,27.73,30.269,26.752z M12.875,21.007c-4.48,0-8.125-3.651-8.125-8.138
	c0-4.488,3.645-8.139,8.125-8.139C17.352,4.73,21,8.381,21,12.869C21,17.356,17.352,21.007,12.875,21.007z"/>
</svg>
